<svg width="9" height="9" viewBox="0 0 9 9" fill="none" xmlns="http://www.w3.org/2000/svg">
<path d="M6.87003 0.522525L4.07107 3.32149L1.2721 0.522525C1.19108 0.441502 1.0585 0.441502 0.977476 0.522524L0.0935921 1.40641C0.0125694 1.48743 0.0125693 1.62001 0.093592 1.70104L2.89256 4.5L0.093592 7.29896C0.0125693 7.37999 0.0125694 7.51257 0.0935921 7.59359L0.977476 8.47748C1.0585 8.5585 1.19108 8.5585 1.2721 8.47748L4.07107 5.67851L6.87003 8.47748C6.95105 8.5585 7.08364 8.5585 7.16466 8.47748L8.04854 7.59359C8.12957 7.51257 8.12957 7.37999 8.04854 7.29896L5.24958 4.5L8.04854 1.70104C8.12957 1.62001 8.12957 1.48743 8.04854 1.40641L7.16466 0.522524C7.08364 0.441502 6.95105 0.441502 6.87003 0.522525Z" fill="white"/>
</svg>
