<svg width="9" height="9" viewBox="0 0 9 9" fill="none" xmlns="http://www.w3.org/2000/svg">
<path d="M3.6 1.8H5.4C5.4 1.56131 5.30518 1.33239 5.1364 1.1636C4.96761 0.994821 4.73869 0.9 4.5 0.9C4.2613 0.9 4.03239 0.994821 3.8636 1.1636C3.69482 1.33239 3.6 1.56131 3.6 1.8ZM2.7 1.8C2.7 1.32261 2.88964 0.864773 3.22721 0.527208C3.56477 0.189642 4.02261 0 4.5 0C4.97739 0 5.43523 0.189642 5.77279 0.527208C6.11036 0.864773 6.3 1.32261 6.3 1.8H8.55C8.66935 1.8 8.78381 1.84741 8.8682 1.9318C8.95259 2.01619 9 2.13065 9 2.25C9 2.36935 8.95259 2.48381 8.8682 2.5682C8.78381 2.65259 8.66935 2.7 8.55 2.7H8.1531L7.7544 7.353C7.71607 7.80231 7.51049 8.22086 7.17833 8.52586C6.84618 8.83085 6.41164 9.00005 5.9607 9H3.0393C2.58836 9.00005 2.15382 8.83085 1.82167 8.52586C1.48951 8.22086 1.28393 7.80231 1.2456 7.353L0.8469 2.7H0.45C0.330653 2.7 0.216193 2.65259 0.131802 2.5682C0.0474106 2.48381 0 2.36935 0 2.25C0 2.13065 0.0474106 2.01619 0.131802 1.9318C0.216193 1.84741 0.330653 1.8 0.45 1.8H2.7ZM5.85 4.5C5.85 4.38065 5.80259 4.26619 5.7182 4.1818C5.63381 4.09741 5.51935 4.05 5.4 4.05C5.28065 4.05 5.16619 4.09741 5.0818 4.1818C4.99741 4.26619 4.95 4.38065 4.95 4.5V6.3C4.95 6.41935 4.99741 6.53381 5.0818 6.6182C5.16619 6.70259 5.28065 6.75 5.4 6.75C5.51935 6.75 5.63381 6.70259 5.7182 6.6182C5.80259 6.53381 5.85 6.41935 5.85 6.3V4.5ZM3.6 4.05C3.48065 4.05 3.36619 4.09741 3.2818 4.1818C3.19741 4.26619 3.15 4.38065 3.15 4.5V6.3C3.15 6.41935 3.19741 6.53381 3.2818 6.6182C3.36619 6.70259 3.48065 6.75 3.6 6.75C3.71935 6.75 3.83381 6.70259 3.9182 6.6182C4.00259 6.53381 4.05 6.41935 4.05 6.3V4.5C4.05 4.38065 4.00259 4.26619 3.9182 4.1818C3.83381 4.09741 3.71935 4.05 3.6 4.05Z" fill="#EB5757"/>
</svg>
