<svg width="8" height="9" viewBox="0 0 8 9" fill="none" xmlns="http://www.w3.org/2000/svg">
<path d="M7.70219 2.14706L6.33217 0.772102C6.15337 0.603542 5.91906 0.506824 5.67383 0.500348C5.4286 0.493871 5.18955 0.578087 5.00216 0.736976L0.502107 5.25327C0.340488 5.41685 0.239856 5.63124 0.217104 5.86047L0.0021015 7.95302C-0.0046341 8.02652 0.0048687 8.1006 0.0299324 8.16999C0.0549961 8.23939 0.0950036 8.30237 0.147103 8.35447C0.193824 8.40098 0.249232 8.43777 0.310152 8.46274C0.371071 8.48772 0.436303 8.50037 0.502107 8.49999H0.547108L2.63213 8.3093C2.86053 8.28647 3.07415 8.18547 3.23714 8.02327L7.73719 3.50697C7.91185 3.32179 8.00624 3.07467 7.99968 2.81976C7.99312 2.56485 7.88614 2.32295 7.70219 2.14706ZM6.00217 3.82311L4.66215 2.47826L5.63716 1.47464L7.00218 2.84458L6.00217 3.82311Z" fill="white"/>
</svg>
