<svg width="14" height="14" viewBox="0 0 14 14" fill="none" xmlns="http://www.w3.org/2000/svg">
<path fill-rule="evenodd" clip-rule="evenodd" d="M0 1.96875C0 1.4466 0.207421 0.945846 0.576633 0.576633C0.945846 0.207421 1.4466 0 1.96875 0H12.0312C12.5534 0 13.0542 0.207421 13.4234 0.576633C13.7926 0.945846 14 1.4466 14 1.96875V9.40625C14 9.9284 13.7926 10.4292 13.4234 10.7984C13.0542 11.1676 12.5534 11.375 12.0312 11.375H9.31437C9.48525 11.9475 9.81981 12.4576 10.2769 12.8424C10.3797 12.9292 10.4533 13.0456 10.4878 13.1756C10.5223 13.3057 10.5159 13.4433 10.4696 13.5696C10.4233 13.696 10.3392 13.805 10.2288 13.882C10.1185 13.959 9.98708 14.0002 9.8525 14H4.1475C4.013 14 3.88174 13.9587 3.77149 13.8816C3.66124 13.8046 3.57733 13.6955 3.53112 13.5692C3.48491 13.4429 3.47863 13.3054 3.51313 13.1754C3.54763 13.0454 3.62124 12.9292 3.724 12.8424C4.18074 12.4575 4.51499 11.9474 4.68563 11.375H1.96875C1.4466 11.375 0.945846 11.1676 0.576633 10.7984C0.207421 10.4292 0 9.9284 0 9.40625V1.96875ZM1.3125 1.96875C1.3125 1.7947 1.38164 1.62778 1.50471 1.50471C1.62778 1.38164 1.7947 1.3125 1.96875 1.3125H12.0312C12.2053 1.3125 12.3722 1.38164 12.4953 1.50471C12.6184 1.62778 12.6875 1.7947 12.6875 1.96875V8.53125C12.6875 8.7053 12.6184 8.87222 12.4953 8.99529C12.3722 9.11836 12.2053 9.1875 12.0312 9.1875H1.96875C1.7947 9.1875 1.62778 9.11836 1.50471 8.99529C1.38164 8.87222 1.3125 8.7053 1.3125 8.53125V1.96875Z" fill="#696969"/>
</svg>
