<svg width="16" height="16" viewBox="0 0 16 16" fill="none" xmlns="http://www.w3.org/2000/svg">
<path d="M8.52763 6.43095C8.9588 6.43095 9.30833 6.08142 9.30833 5.65026C9.30833 5.21909 8.9588 4.86957 8.52763 4.86957C8.09647 4.86957 7.74694 5.21909 7.74694 5.65026C7.74694 6.08142 8.09647 6.43095 8.52763 6.43095Z" fill="white"/>
<path d="M9.32583 9.5986C9.30426 9.58409 9.28002 9.57404 9.25451 9.56903C9.22901 9.56402 9.20276 9.56415 9.17731 9.56942C9.15185 9.5747 9.12771 9.585 9.10629 9.59973C9.08488 9.61446 9.06662 9.63332 9.05259 9.6552C8.86391 9.93462 8.63278 10.1829 8.36753 10.391C8.30312 10.4398 8.06306 10.6252 7.96157 10.5862C7.89131 10.5647 7.9323 10.4261 7.94596 10.3676L8.0494 10.0612C8.09234 9.93625 8.83985 7.71908 8.92182 7.46536C9.04283 7.09453 8.99013 6.72955 8.43779 6.81738C8.28751 6.833 6.76321 7.03012 6.73588 7.03207C6.71025 7.03374 6.6852 7.04044 6.66216 7.05178C6.63912 7.06313 6.61854 7.07891 6.60159 7.09821C6.58465 7.11751 6.57167 7.13996 6.5634 7.16428C6.55513 7.18859 6.55173 7.2143 6.5534 7.23993C6.55506 7.26556 6.56176 7.29061 6.57311 7.31366C6.58446 7.3367 6.60023 7.35728 6.61953 7.37422C6.63883 7.39117 6.66129 7.40415 6.6856 7.41242C6.70992 7.42069 6.73563 7.42408 6.76126 7.42242C6.76126 7.42242 7.34678 7.3463 7.41118 7.34045C7.44417 7.33722 7.47739 7.34362 7.50683 7.35886C7.53627 7.37409 7.56066 7.39753 7.57708 7.42632C7.61245 7.53564 7.6076 7.654 7.56342 7.76007C7.51267 7.95524 6.71051 10.2153 6.68514 10.3461C6.65793 10.4555 6.66548 10.5707 6.70676 10.6757C6.74803 10.7806 6.82097 10.8701 6.91544 10.9316C7.09276 11.0498 7.30389 11.1067 7.51658 11.0936C7.72338 11.0911 7.92789 11.0501 8.11966 10.9726C8.60564 10.7774 9.11309 10.2583 9.38048 9.85037C9.40351 9.80893 9.41066 9.76052 9.4006 9.71419C9.39054 9.66785 9.36397 9.62677 9.32583 9.5986V9.5986Z" fill="white"/>
<circle cx="8" cy="8" r="7.5" stroke="white"/>
</svg>
