<svg width="22" height="22" viewBox="0 0 22 22" fill="none" xmlns="http://www.w3.org/2000/svg">
<path fill-rule="evenodd" clip-rule="evenodd" d="M6.87474 0H15.1247C18.9211 0 21.9997 3.07862 21.9997 6.875V15.125C21.9997 18.9214 18.9211 22 15.1247 22H6.87474C3.07837 22 -0.000259399 18.9214 -0.000259399 15.125V6.875C-0.000259399 3.07862 3.07837 0 6.87474 0ZM15.1247 19.9375C17.7785 19.9375 19.9372 17.7787 19.9372 15.125V6.875C19.9372 4.22125 17.7785 2.0625 15.1247 2.0625H6.87474C4.22099 2.0625 2.06224 4.22125 2.06224 6.875V15.125C2.06224 17.7787 4.22099 19.9375 6.87474 19.9375H15.1247Z" fill="white"/>
<path fill-rule="evenodd" clip-rule="evenodd" d="M5.49974 11C5.49974 7.96263 7.96237 5.5 10.9997 5.5C14.0371 5.5 16.4997 7.96263 16.4997 11C16.4997 14.0374 14.0371 16.5 10.9997 16.5C7.96237 16.5 5.49974 14.0374 5.49974 11ZM7.56224 11C7.56224 12.8948 9.10499 14.4375 10.9997 14.4375C12.8945 14.4375 14.4372 12.8948 14.4372 11C14.4372 9.10388 12.8945 7.5625 10.9997 7.5625C9.10499 7.5625 7.56224 9.10388 7.56224 11Z" fill="white"/>
<circle cx="16.9122" cy="5.08749" r="0.732875" fill="white"/>
</svg>
