<svg width="12" height="12" viewBox="0 0 12 12" fill="none" xmlns="http://www.w3.org/2000/svg">
<path fill-rule="evenodd" clip-rule="evenodd" d="M9.75 1.33333H2.25C2.05109 1.33333 1.86032 1.40357 1.71967 1.5286C1.57902 1.65362 1.5 1.82319 1.5 2V10C1.5 10.1768 1.57902 10.3464 1.71967 10.4714C1.86032 10.5964 2.05109 10.6667 2.25 10.6667H9.75C9.94891 10.6667 10.1397 10.5964 10.2803 10.4714C10.421 10.3464 10.5 10.1768 10.5 10V2C10.5 1.82319 10.421 1.65362 10.2803 1.5286C10.1397 1.40357 9.94891 1.33333 9.75 1.33333ZM2.25 0C1.65326 0 1.08097 0.210714 0.65901 0.585787C0.237053 0.960859 0 1.46957 0 2V10C0 10.5304 0.237053 11.0391 0.65901 11.4142C1.08097 11.7893 1.65326 12 2.25 12H9.75C10.3467 12 10.919 11.7893 11.341 11.4142C11.7629 11.0391 12 10.5304 12 10V2C12 1.46957 11.7629 0.960859 11.341 0.585787C10.919 0.210714 10.3467 0 9.75 0H2.25Z" fill="white"/>
<path d="M2.99985 2.66644H8.99985V3.99978H2.99985V2.66644Z" fill="white"/>
<path d="M2.99985 5.33337H8.99985V6.66671H2.99985V5.33337Z" fill="white"/>
<path d="M2.99985 7.99994H6.74985V9.33327H2.99985V7.99994Z" fill="white"/>
</svg>
