<svg width="10" height="10" viewBox="0 0 10 10" fill="none" xmlns="http://www.w3.org/2000/svg">
<path d="M9.79167 4.16667H5.83333V0.208333C5.83333 0.09375 5.73958 0 5.625 0H4.375C4.26042 0 4.16667 0.09375 4.16667 0.208333V4.16667H0.208333C0.09375 4.16667 0 4.26042 0 4.375V5.625C0 5.73958 0.09375 5.83333 0.208333 5.83333H4.16667V9.79167C4.16667 9.90625 4.26042 10 4.375 10H5.625C5.73958 10 5.83333 9.90625 5.83333 9.79167V5.83333H9.79167C9.90625 5.83333 10 5.73958 10 5.625V4.375C10 4.26042 9.90625 4.16667 9.79167 4.16667Z" fill="white"/>
</svg>
