<svg width="13" height="15" viewBox="0 0 13 15" fill="none" xmlns="http://www.w3.org/2000/svg">
<path d="M5.2 2.97467H7.8C7.8 2.58021 7.66304 2.2019 7.41924 1.92297C7.17544 1.64404 6.84478 1.48734 6.5 1.48734C6.15522 1.48734 5.82456 1.64404 5.58076 1.92297C5.33696 2.2019 5.2 2.58021 5.2 2.97467ZM3.9 2.97467C3.9 2.18574 4.17393 1.42912 4.66152 0.871261C5.14912 0.313402 5.81044 0 6.5 0C7.18956 0 7.85088 0.313402 8.33848 0.871261C8.82607 1.42912 9.1 2.18574 9.1 2.97467H12.35C12.5224 2.97467 12.6877 3.05302 12.8096 3.19249C12.9315 3.33195 13 3.52111 13 3.71834C13 3.91557 12.9315 4.10473 12.8096 4.24419C12.6877 4.38366 12.5224 4.46201 12.35 4.46201H11.7767L11.2008 12.1515C11.1454 12.8941 10.8485 13.5858 10.3687 14.0898C9.88892 14.5938 9.26126 14.8735 8.6099 14.8734H4.3901C3.73874 14.8735 3.11108 14.5938 2.6313 14.0898C2.15151 13.5858 1.85457 12.8941 1.7992 12.1515L1.2233 4.46201H0.65C0.477609 4.46201 0.312279 4.38366 0.190381 4.24419C0.0684819 4.10473 0 3.91557 0 3.71834C0 3.52111 0.0684819 3.33195 0.190381 3.19249C0.312279 3.05302 0.477609 2.97467 0.65 2.97467H3.9ZM8.45 7.43668C8.45 7.23945 8.38152 7.05029 8.25962 6.91083C8.13772 6.77136 7.97239 6.69301 7.8 6.69301C7.62761 6.69301 7.46228 6.77136 7.34038 6.91083C7.21848 7.05029 7.15 7.23945 7.15 7.43668V10.4114C7.15 10.6086 7.21848 10.7977 7.34038 10.9372C7.46228 11.0767 7.62761 11.155 7.8 11.155C7.97239 11.155 8.13772 11.0767 8.25962 10.9372C8.38152 10.7977 8.45 10.6086 8.45 10.4114V7.43668ZM5.2 6.69301C5.02761 6.69301 4.86228 6.77136 4.74038 6.91083C4.61848 7.05029 4.55 7.23945 4.55 7.43668V10.4114C4.55 10.6086 4.61848 10.7977 4.74038 10.9372C4.86228 11.0767 5.02761 11.155 5.2 11.155C5.37239 11.155 5.53772 11.0767 5.65962 10.9372C5.78152 10.7977 5.85 10.6086 5.85 10.4114V7.43668C5.85 7.23945 5.78152 7.05029 5.65962 6.91083C5.53772 6.77136 5.37239 6.69301 5.2 6.69301Z" fill="#EB5757"/>
</svg>
